<svg width="466" height="466" xmlns="http://www.w3.org/2000/svg">
  <g fill="none" fill-rule="evenodd">
    <path d="M233 0c128.682 0 233 104.318 233 233 0 57.53-20.85 110.191-55.407 150.838l-49.731-49.732C382.863 306.32 396 271.194 396 233c0-90.022-72.978-163-163-163S70 142.978 70 233s72.978 163 163 163c28.625 0 55.526-7.379 78.906-20.338l50.876 50.876C325.692 451.459 281.044 466 233 466 104.318 466 0 361.682 0 233 0 104.318 104.318 0 233 0z" fill="#4285F4"/>
    <path d="M236 105c72.35 0 131 58.65 131 131 0 32.785-12.043 62.756-31.947 85.733l60.116 60.116c8.787 8.787 8.787 23.033 0 31.82-8.787 8.787-23.033 8.787-31.82 0l-61.518-61.518a22.744 22.744 0 01-1.698-1.899C281.18 360.917 259.3 367 236 367c-72.35 0-131-58.65-131-131s58.65-131 131-131zm0 44c-48.049 0-87 38.951-87 87s38.951 87 87 87 87-38.951 87-87-38.951-87-87-87z" fill="#EA4335"/>
  </g>
</svg>
